# xmcd
#
# Track frame offsets:
#	150
#	16427
#	36082
#	49187
#	65470
#	81712
#	101450
#	124047
#	139885
#	155370
#	166582
#	187905
#	207717
#	224467
#	243280
#	258772
#	273905
#	291772
#
# Disc length: 4075 seconds
#
# Revision: 1
# Processed by: cddbd v1.5PL3 Copyright (c) Steve Scherf et al.
# Submitted via: CDex 1.50Beta5
#
DISCID=040fe912
DTITLE=COBRA - BEST OF COBRA
DYEAR=1996
DGENRE=Rock
TTITLE0=TOKIO RIOT
TTITLE1=WE ARE THE CHAMPION
TTITLE2=OiOiモンキー・ブルース
TTITLE3=若さとギャランティー
TTITLE4=CAPTAIN NIPPON
TTITLE5=オレたち
TTITLE6=JIMMY DEAN
TTITLE7=REAL NOW
TTITLE8=NEVER GIVE UP
TTITLE9=WORST MUSIC
TTITLE10=やっちまえ!POPSTAR
TTITLE11=BALLAD OF COBRA
TTITLE12=ON THE STREET
TTITLE13=あの娘はエイリアン
TTITLE14=Oi Oi Oi
TTITLE15=Oi TONIGHT
TTITLE16=TOKIO RIOT
TTITLE17=CRISIS
EXTD=
EXTT0=
EXTT1=
EXTT2=
EXTT3=
EXTT4=
EXTT5=
EXTT6=
EXTT7=
EXTT8=
EXTT9=
EXTT10=
EXTT11=
EXTT12=
EXTT13=
EXTT14=
EXTT15=
EXTT16=
EXTT17=
PLAYORDER=
